<?xml version="1.0" encoding="UTF-8"?>
<svg width="21px" height="21px" viewBox="0 0 21 21" version="1.1" xmlns="http://www.w3.org/2000/svg" xmlns:xlink="http://www.w3.org/1999/xlink">

        <g fill="#878787">
            <path d="M18.2121945,9.10564638 C18.2121945,14.1345456 14.1351585,18.2112928 9.10654815,18.2112928 C4.07718048,18.2112928 0,14.13469 0,9.10564638 C0,4.07660273 4.07718048,0 9.10654815,0 C14.1351585,0 18.2121945,4.07674716 18.2121945,9.10564638 Z M17.5818556,9.10564638 C17.5818556,4.42488371 13.7870419,0.630338878 9.10654815,0.630338878 C4.42528703,0.630338878 0.630338878,4.42474928 0.630338878,9.10564638 C0.630338878,13.7865435 4.42528703,17.5809539 9.10654815,17.5809539 C13.7870419,17.5809539 17.5818556,13.786409 17.5818556,9.10564638 Z M15.099336,15.544602 L19.8940597,20.3393257 L20.3397765,19.8936088 L15.5450529,15.0988851 L15.099336,15.544602 Z"></path>
        </g>
</svg>